<?xml version="1.0" standalone="no"?>
<!DOCTYPE svg PUBLIC "-//W3C//DTD SVG 20010904//EN"
 "http://www.w3.org/TR/2001/REC-SVG-20010904/DTD/svg10.dtd">
<svg version="1.0" xmlns="http://www.w3.org/2000/svg"
 width="576.000000pt" height="69.000000pt" viewBox="0 0 576.000000 69.000000"
 preserveAspectRatio="xMidYMid meet">

<g transform="translate(0.000000,69.000000) scale(0.100000,-0.100000)"
fill="#2a3ccb" stroke="none">
<path d="M1981 680 c-224 -31 -389 -132 -437 -265 l-11 -30 -764 -5 -764 -5 0
-30 0 -30 766 -3 767 -2 6 -31 c21 -106 164 -207 365 -256 101 -25 332 -22
436 6 218 58 355 180 355 316 0 136 -140 261 -354 315 -92 23 -271 33 -365 20z
m317 -75 c263 -55 394 -202 309 -347 -67 -115 -259 -188 -492 -188 -224 0
-410 68 -485 177 -97 142 33 300 294 358 84 18 288 18 374 0z"/>
<path d="M3511 680 c-263 -37 -451 -177 -451 -335 0 -136 137 -258 355 -316
104 -28 335 -31 436 -6 201 49 344 150 365 256 l6 31 767 2 766 3 0 30 0 30
-764 5 -764 5 -11 30 c-41 115 -157 198 -341 245 -91 23 -270 33 -364 20z
m363 -84 c130 -36 234 -105 273 -179 19 -37 19 -107 0 -144 -39 -74 -144 -143
-273 -179 -77 -22 -305 -30 -387 -15 -280 53 -422 203 -334 354 45 77 153 138
307 173 78 18 337 12 414 -10z"/>
</g>
</svg>
